<svg xmlns="http://www.w3.org/2000/svg" xmlns:xlink="http://www.w3.org/1999/xlink" xml:space="preserve" version="1.1" style="shape-rendering:geometricPrecision;text-rendering:geometricPrecision;image-rendering:optimizeQuality;" viewBox="0 0 274 342.5" x="0px" y="0px" fill-rule="evenodd" clip-rule="evenodd"><defs><style type="text/css">
   
    .fil0 {fill:black;fill-rule:nonzero}
   
  </style></defs><g><path class="fil0" d="M137 0c75,0 137,62 137,137 0,75 -62,137 -137,137 -75,0 -137,-62 -137,-137 0,-75 62,-137 137,-137zm0 20c-64,0 -117,53 -117,117 0,64 53,117 117,117 64,0 117,-53 117,-117 0,-64 -53,-117 -117,-117z"/><path class="fil0" d="M121 67c0,-13 20,-13 20,0l0 66 52 0c13,0 13,20 0,20l-61 0c-6,0 -11,-4 -11,-10l0 -76z"/></g><text x="0" y="289" fill="#000000" font-size="5px" font-weight="bold" font-family="'Helvetica Neue', Helvetica, Arial-Unicode, Arial, Sans-serif">Created by Humantech</text><text x="0" y="294" fill="#000000" font-size="5px" font-weight="bold" font-family="'Helvetica Neue', Helvetica, Arial-Unicode, Arial, Sans-serif">from the Noun Project</text></svg>