<svg xmlns="http://www.w3.org/2000/svg" data-name="Layer 1" viewBox="0 0 100 125" x="0px" y="0px"><title>A</title><path d="M63.65778,94.99994H78.4411a1.15317,1.15317,0,0,0,1.15314-1.15314V60.92743A13.64637,13.64637,0,0,1,77.9541,59.5462L50,31.59161,22.0459,59.54572a13.63953,13.63953,0,0,1-1.63989,1.381v32.92a1.15316,1.15316,0,0,0,1.15313,1.15314H36.34247a1.15317,1.15317,0,0,0,1.15314-1.15314V80.91913a12.7768,12.7768,0,0,1,12.27044-12.917A12.50455,12.50455,0,0,1,62.50464,80.50446V93.8468A1.15317,1.15317,0,0,0,63.65778,94.99994Z"/><path d="M55.30371,7.19659a7.50139,7.50139,0,0,0-10.60742,0L33.05182,18.84106V16.5a7.5,7.5,0,0,0-15,0V33.84106L7.19629,44.69659A7.50024,7.50024,0,0,0,17.80371,55.303L50,23.10626,82.19629,55.303A7.50024,7.50024,0,0,0,92.80371,44.69659Z"/><text x="0" y="115" fill="#000000" font-size="5px" font-weight="bold" font-family="'Helvetica Neue', Helvetica, Arial-Unicode, Arial, Sans-serif">Created by Markus</text><text x="0" y="120" fill="#000000" font-size="5px" font-weight="bold" font-family="'Helvetica Neue', Helvetica, Arial-Unicode, Arial, Sans-serif">from the Noun Project</text></svg>