<svg xmlns="http://www.w3.org/2000/svg" xmlns:xlink="http://www.w3.org/1999/xlink" version="1.1" x="0px" y="0px" viewBox="0 0 100 125" enable-background="new 0 0 100 100" xml:space="preserve"><g><path d="M81.546,74.606c-0.061,0.031-4.179,2.035-13.198,3.413c-4.744,0.725-10.843,1.277-18.422,1.277   c-7.581,0-13.681-0.552-18.424-1.277c-9.015-1.377-13.126-3.378-13.173-3.401c-1.878-0.971-4.189-0.237-5.16,1.642   c-0.972,1.878-0.237,4.189,1.642,5.16c0.437,0.226,10.975,5.534,35.115,5.534s34.678-5.308,35.115-5.534   c1.879-0.971,2.625-3.288,1.654-5.166C85.723,74.376,83.424,73.635,81.546,74.606z"/><path d="M88.392,22.747c-3.572,0-6.467,2.895-6.467,6.467c0,1.497,0.514,2.872,1.368,3.968c0.105,0.135,0.215,0.264,0.33,0.389   L66.543,47.983L53.012,25.2c0.15-0.081,0.294-0.172,0.436-0.265c1.774-1.153,2.95-3.149,2.95-5.422   c0-3.572-2.895-6.467-6.467-6.467c-3.572,0-6.467,2.895-6.467,6.467c0,2.273,1.176,4.269,2.95,5.422   c0.143,0.093,0.286,0.184,0.436,0.265L33.318,47.983L16.238,33.571c0.115-0.126,0.226-0.255,0.33-0.389   c0.854-1.096,1.368-2.471,1.368-3.968c0-3.572-2.895-6.467-6.467-6.467s-6.467,2.895-6.467,6.467c0,3.572,2.895,6.467,6.467,6.467   c0.178,0,0.354-0.013,0.528-0.027c0.171-0.014,0.339-0.037,0.506-0.064l4.307,35.32c1.193,0.563,11.337,5.019,33.12,5.019   s31.926-4.456,33.12-5.019l4.307-35.32c0.167,0.027,0.335,0.05,0.506,0.064c0.175,0.014,0.35,0.027,0.528,0.027   c3.572,0,6.467-2.895,6.467-6.467C94.859,25.642,91.964,22.747,88.392,22.747z"/></g><text x="0" y="115" fill="#000000" font-size="5px" font-weight="bold" font-family="'Helvetica Neue', Helvetica, Arial-Unicode, Arial, Sans-serif">Created by Marek Polakovic</text><text x="0" y="120" fill="#000000" font-size="5px" font-weight="bold" font-family="'Helvetica Neue', Helvetica, Arial-Unicode, Arial, Sans-serif">from the Noun Project</text></svg>