<svg xmlns="http://www.w3.org/2000/svg" xmlns:xlink="http://www.w3.org/1999/xlink" version="1.1" x="0px" y="0px" viewBox="0 0 1024 1280" style="enable-background:new 0 0 1024 1024;" xml:space="preserve"><g><g><path d="M903,337.4c0,11.7,0,23.4,0,35.2c0,28.1,0,56.2,0,84.3c0,33.9,0,67.7,0,101.6c0,29,0,58.1,0,87.1    c0,13.6,0.2,27.2,0,40.7c0,2.2-0.2,4.4-0.5,6.6c0.6-4.4,1.2-8.9,1.8-13.3c-0.6,3.6-1.5,7.1-2.9,10.5c1.7-4,3.4-8,5-11.9    c-1.5,3.4-3.2,6.5-5.4,9.5c2.6-3.4,5.2-6.7,7.8-10.1c-7.3,9.4-16.8,17.5-25.2,25.9c-17.9,17.9-35.8,35.8-53.7,53.7    c-40.5,40.5-80.9,80.9-121.4,121.4c-6.6,6.6-13.1,13.1-19.7,19.7c-3.7,3.7-7.3,7.6-11.4,10.8c3.4-2.6,6.7-5.2,10.1-7.8    c-3,2.2-6.1,3.9-9.5,5.4c4-1.7,8-3.4,11.9-5c-3.4,1.4-6.9,2.3-10.5,2.9c4.4-0.6,8.9-1.2,13.3-1.8c-12.9,1.6-26.6,0.5-39.6,0.5    c-27.9,0-55.9,0-83.8,0c-34.2,0-68.3,0-102.5,0c-29.3,0-58.6,0-87.9,0c-13.8,0-27.6,0.2-41.4,0c-2.2,0-4.4-0.2-6.6-0.5    c4.4,0.6,8.9,1.2,13.3,1.8c-3.6-0.6-7.1-1.5-10.5-2.9c4,1.7,8,3.4,11.9,5c-3.4-1.5-6.5-3.2-9.5-5.4c3.4,2.6,6.7,5.2,10.1,7.8    c-9.4-7.3-17.5-16.8-25.9-25.2c-17.9-17.9-35.8-35.8-53.7-53.7c-40.5-40.5-80.9-80.9-121.4-121.4c-6.6-6.6-13.1-13.1-19.7-19.7    c-3.7-3.7-7.6-7.3-10.8-11.4c2.6,3.4,5.2,6.7,7.8,10.1c-2.2-3-3.9-6.1-5.4-9.5c1.7,4,3.4,8,5,11.9c-1.4-3.4-2.3-6.9-2.9-10.5    c0.6,4.4,1.2,8.9,1.8,13.3c-1.6-12.9-0.5-26.6-0.5-39.6c0-27.9,0-55.9,0-83.8c0-34.2,0-68.3,0-102.5c0-29.3,0-58.6,0-87.9    c0-13.8-0.2-27.6,0-41.4c0-2.2,0.2-4.4,0.5-6.6c-0.6,4.4-1.2,8.9-1.8,13.3c0.6-3.6,1.5-7.1,2.9-10.5c-1.7,4-3.4,8-5,11.9    c1.5-3.4,3.2-6.5,5.4-9.5c-2.6,3.4-5.2,6.7-7.8,10.1c7.3-9.4,16.8-17.5,25.2-25.9c17.9-17.9,35.8-35.8,53.7-53.7    c40.5-40.5,80.9-80.9,121.4-121.4c6.6-6.6,13.1-13.1,19.7-19.7c3.7-3.7,7.3-7.6,11.4-10.8c-3.4,2.6-6.7,5.2-10.1,7.8    c3-2.2,6.1-3.9,9.5-5.4c-4,1.7-8,3.4-11.9,5c3.4-1.4,6.9-2.3,10.5-2.9c-4.4,0.6-8.9,1.2-13.3,1.8c12.9-1.6,26.6-0.5,39.6-0.5    c27.9,0,55.9,0,83.8,0c34.2,0,68.3,0,102.5,0c29.3,0,58.6,0,87.9,0c13.8,0,27.6-0.2,41.4,0c2.2,0,4.4,0.2,6.6,0.5    c-4.4-0.6-8.9-1.2-13.3-1.8c3.6,0.6,7.1,1.5,10.5,2.9c-4-1.7-8-3.4-11.9-5c3.4,1.5,6.5,3.2,9.5,5.4c-3.4-2.6-6.7-5.2-10.1-7.8    c9.4,7.3,17.5,16.8,25.9,25.2c17.9,17.9,35.8,35.8,53.7,53.7c40.5,40.5,80.9,80.9,121.4,121.4c6.6,6.6,13.1,13.1,19.7,19.7    c3.7,3.7,7.6,7.3,10.8,11.4c-2.6-3.4-5.2-6.7-7.8-10.1c2.2,3,3.9,6.1,5.4,9.5c-1.7-4-3.4-8-5-11.9c1.4,3.4,2.3,6.9,2.9,10.5    c-0.6-4.4-1.2-8.9-1.8-13.3C902.8,333.2,903,335.3,903,337.4c0.2,13,5.4,26.1,14.6,35.4c8.7,8.7,22.9,15.2,35.4,14.6    c12.9-0.6,26.3-4.8,35.4-14.6c8.9-9.7,14.9-21.9,14.6-35.4c-0.5-26.2-11-49.9-29.4-68.3c-4.6-4.6-9.2-9.2-13.8-13.8    c-18.7-18.7-37.4-37.4-56-56c-23.6-23.6-47.2-47.2-70.8-70.8c-19.7-19.7-39.5-39.5-59.2-59.2c-5.5-5.5-11.1-11.1-16.6-16.6    c-1.2-1.2-2.4-2.4-3.6-3.6c-10.9-10.7-22.7-17.4-36.8-22.8C699,19.2,677.7,21,658.9,21c-26.4,0-52.7,0-79.1,0    c-33.5,0-67.1,0-100.6,0c-30.1,0-60.1,0-90.2,0c-16.5,0-32.9,0-49.4,0c-25.8,0-50.1,9.5-68.6,27.5c-2.6,2.5-5.1,5.1-7.6,7.6    c-16.1,16.1-32.3,32.3-48.4,48.4c-23.2,23.2-46.4,46.4-69.7,69.7c-21.5,21.5-43,43-64.5,64.5c-10.6,10.6-21.3,21.2-31.9,31.9    C31,288.7,21.1,312.8,21,338.2c0,4.8,0,9.6,0,14.4c0,23.1,0,46.3,0,69.4c0,32.6,0,65.3,0,97.9c0,32,0,63.9,0,95.9    c0,20.6,0,41.3,0,61.9c0,4-0.2,8,0.1,11.9c1.7,24.1,10.4,45.8,27.4,63.3c0.7,0.8,1.5,1.5,2.2,2.2c13,13,26,26,38.9,38.9    c22.4,22.4,44.8,44.8,67.2,67.2c22.7,22.7,45.3,45.3,68,68c14.1,14.1,28.3,28.3,42.4,42.4c12.3,12.3,26.2,21.6,42.9,27.1    c10.7,3.6,22.1,4,33.3,4c19.4,0,38.8,0,58.1,0c31.3,0,62.6,0,93.9,0c33.1,0,66.2,0,99.3,0c24.3,0,48.5,0,72.8,0c5.7,0,11.3,0,17,0    c25.7,0,49.9-9.5,68.4-27.5c9.5-9.3,18.8-18.8,28.2-28.2c20.9-20.9,41.7-41.7,62.6-62.6c23.5-23.5,47-47,70.6-70.6    c17-17,33.9-33.9,50.9-50.9c3.3-3.3,6.6-6.6,9.9-9.9c17.8-18.2,27.7-42.2,27.8-67.7c0.1-14.8,0-29.7,0-44.5c0-29.5,0-59,0-88.4    c0-33.5,0-67,0-100.5c0-27.4,0-54.9,0-82.3c0-10.8,0-21.6,0-32.4c0-12.8-5.6-26.3-14.6-35.4c-8.7-8.7-22.9-15.2-35.4-14.6    c-12.9,0.6-26.3,4.8-35.4,14.6C908.7,311.8,903,323.9,903,337.4z"/></g></g><g><g><path d="M462,273.2c0,32.3,0,64.7,0,97c0,51.1,0,102.2,0,153.2c0,11.7,0,23.4,0,35.1c0,12.8,5.6,26.3,14.6,35.4    c8.7,8.7,22.9,15.2,35.4,14.6c12.9-0.6,26.3-4.8,35.4-14.6c9-9.8,14.6-21.8,14.6-35.4c0-32.3,0-64.7,0-97c0-51.1,0-102.2,0-153.2    c0-11.7,0-23.4,0-35.1c0-12.8-5.6-26.3-14.6-35.4c-8.7-8.7-22.9-15.2-35.4-14.6c-12.9,0.6-26.3,4.8-35.4,14.6    C467.7,247.6,462,259.6,462,273.2L462,273.2z"/></g></g><g><g><path d="M470.6,717.9c0,0.3,0,0.6-0.1,0.9c0.6-4.4,1.2-8.9,1.8-13.3c-0.2,0.9-0.4,1.7-0.7,2.6c1.7-4,3.4-8,5-11.9    c-0.2,0.5-0.5,1.1-0.9,1.5c2.6-3.4,5.2-6.7,7.8-10.1c-0.6,0.7-1.1,1.3-1.9,1.9c3.4-2.6,6.7-5.2,10.1-7.8c-0.5,0.4-1,0.7-1.5,0.9    c4-1.7,8-3.4,11.9-5c-0.9,0.4-1.7,0.6-2.6,0.7c4.4-0.6,8.9-1.2,13.3-1.8c-0.6,0.1-1.3,0.1-1.9,0c4.4,0.6,8.9,1.2,13.3,1.8    c-0.9-0.2-1.7-0.4-2.6-0.7c4,1.7,8,3.4,11.9,5c-0.5-0.2-1.1-0.5-1.5-0.9c3.4,2.6,6.7,5.2,10.1,7.8c-0.7-0.6-1.3-1.1-1.9-1.9    c2.6,3.4,5.2,6.7,7.8,10.1c-0.4-0.5-0.7-1-0.9-1.5c1.7,4,3.4,8,5,11.9c-0.4-0.9-0.6-1.7-0.7-2.6c0.6,4.4,1.2,8.9,1.8,13.3    c-0.1-0.6-0.1-1.3,0-1.9c-0.6,4.4-1.2,8.9-1.8,13.3c0.2-0.9,0.4-1.7,0.7-2.6c-1.7,4-3.4,8-5,11.9c0.2-0.5,0.5-1.1,0.9-1.5    c-2.6,3.4-5.2,6.7-7.8,10.1c0.6-0.7,1.1-1.3,1.9-1.9c-3.4,2.6-6.7,5.2-10.1,7.8c0.5-0.4,1-0.7,1.5-0.9c-4,1.7-8,3.4-11.9,5    c0.9-0.4,1.7-0.6,2.6-0.7c-4.4,0.6-8.9,1.2-13.3,1.8c0.6-0.1,1.3-0.1,1.9,0c-4.4-0.6-8.9-1.2-13.3-1.8c0.9,0.2,1.7,0.4,2.6,0.7    c-4-1.7-8-3.4-11.9-5c0.5,0.2,1.1,0.5,1.5,0.9c-3.4-2.6-6.7-5.2-10.1-7.8c0.7,0.6,1.3,1.1,1.9,1.9c-2.6-3.4-5.2-6.7-7.8-10.1    c0.4,0.5,0.7,1,0.9,1.5c-1.7-4-3.4-8-5-11.9c0.4,0.9,0.6,1.7,0.7,2.6c-0.6-4.4-1.2-8.9-1.8-13.3    C470.6,717.3,470.6,717.6,470.6,717.9c0.7,13.2,5.1,25.8,14.6,35.4c4.5,4.9,9.9,8.3,16.1,10.3c6,3.1,12.4,4.6,19.3,4.3    c12.9-0.6,26.3-4.8,35.4-14.6c8.7-9.5,15.4-22.1,14.6-35.4c-0.2-4.5-0.8-10.8-2-15.1c-0.7-2.7-2-5.2-3.1-7.7    c-3-7.1-6.5-13-12.1-18.6c-0.3-0.3-0.6-0.6-1-0.9c-3.4-2.6-6.7-5.2-10.1-7.8c-4.3-2.6-8.1-4.2-13.5-5.9    c-5.4-1.8-11.2-2.6-16.9-2.6s-11.5,0.8-16.9,2.6c-5.4,1.8-9.2,3.3-13.5,5.9c-3.4,2.6-6.7,5.2-10.1,7.8c-0.4,0.3-0.7,0.5-1,0.9    c-5.6,5.6-9.1,11.5-12.1,18.6c-1.1,2.5-2.3,5-3.1,7.7c-1.2,4.2-1.8,10.8-2,15.1c-0.5,14.8,6.4,30.9,16.9,41.1    c6.2,6,11.5,9.3,18.9,12.4c2.5,1.1,5,2.3,7.7,3.1c2.5,0.4,5,0.8,7.6,1c2.4,0.5,4.7,0.8,7.1,0.9c4.6,0,10.2-0.9,14.7-1.8    c1-0.2,1.7-0.4,2.6-0.7c9.2-3.1,17.4-7.3,24.3-14.3c11.5-11.7,16.6-25.6,17.5-41.8c0.3-6.9-1.2-13.3-4.3-19.3    c-2-6.2-5.5-11.6-10.3-16.1c-4.5-4.9-9.9-8.3-16.1-10.3c-6-3.1-12.4-4.6-19.3-4.3c-12.9,0.6-26.3,4.8-35.4,14.6    c-2.6,3.4-5.2,6.7-7.8,10.1C472.9,700.5,470.7,708.9,470.6,717.9z"/></g></g><text x="0" y="1039" fill="#000000" font-size="5px" font-weight="bold" font-family="'Helvetica Neue', Helvetica, Arial-Unicode, Arial, Sans-serif">Created by shashank singh</text><text x="0" y="1044" fill="#000000" font-size="5px" font-weight="bold" font-family="'Helvetica Neue', Helvetica, Arial-Unicode, Arial, Sans-serif">from the Noun Project</text></svg>