<svg xmlns="http://www.w3.org/2000/svg" xmlns:xlink="http://www.w3.org/1999/xlink" version="1.1" x="0px" y="0px" viewBox="0 0 49 61.25" enable-background="new 0 0 49 49" xml:space="preserve"><g><path fill="#000000" d="M47.5,4.9c-0.1-1.8-1.5-3.2-3.3-3.3l-16.8-1c-1-0.1-2,0.3-2.7,1L1.5,24.7c-1.4,1.4-1.4,3.6,0,5l17.8,17.8   c0.7,0.7,1.6,1,2.5,1h0c0.9,0,1.8-0.4,2.5-1l23.1-23.1c0.7-0.7,1.1-1.7,1-2.7L47.5,4.9z M46,22.9L22.9,46c-0.3,0.3-0.7,0.5-1.1,0.5   c-0.4,0-0.8-0.2-1.1-0.5L3,28.3c-0.6-0.6-0.6-1.6,0-2.2L26.1,3c0.3-0.3,0.7-0.5,1.1-0.5c0,0,0.1,0,0.1,0l16.8,1   c0.8,0,1.4,0.7,1.4,1.4l1,16.8C46.5,22.2,46.4,22.6,46,22.9z"/><path fill="#000000" d="M38.4,6.8c-2.1,0-3.7,1.7-3.7,3.7s1.7,3.7,3.7,3.7c2.1,0,3.7-1.7,3.7-3.7S40.5,6.8,38.4,6.8z M38.4,12.3   c-1,0-1.7-0.8-1.7-1.7s0.8-1.7,1.7-1.7c1,0,1.7,0.8,1.7,1.7S39.4,12.3,38.4,12.3z"/><path fill="#000000" d="M23.1,13.9c-0.4-0.4-1-0.4-1.4,0c-0.4,0.4-0.4,1,0,1.4l12,12c0.2,0.2,0.5,0.3,0.7,0.3   c0.3,0,0.5-0.1,0.7-0.3c0.4-0.4,0.4-1,0-1.4L23.1,13.9z"/><path fill="#000000" d="M20.2,16.8c-0.4-0.4-1-0.4-1.4,0c-0.4,0.4-0.4,1,0,1.4l12,12c0.2,0.2,0.5,0.3,0.7,0.3   c0.3,0,0.5-0.1,0.7-0.3c0.4-0.4,0.4-1,0-1.4L20.2,16.8z"/><path fill="#000000" d="M24.7,27.2c-0.4-0.4-1-0.4-1.4,0c-0.4,0.4-0.4,1,0,1.4l2.6,2.6c0.2,0.2,0.5,0.3,0.7,0.3   c0.3,0,0.5-0.1,0.7-0.3c0.4-0.4,0.4-1,0-1.4L24.7,27.2z"/><path fill="#000000" d="M17.3,19.7c-0.4-0.4-1-0.4-1.4,0c-0.4,0.4-0.4,1,0,1.4l4.8,4.8c0.2,0.2,0.5,0.3,0.7,0.3   c0.3,0,0.5-0.1,0.7-0.3c0.4-0.4,0.4-1,0-1.4L17.3,19.7z"/></g><text x="0" y="64" fill="#000000" font-size="5px" font-weight="bold" font-family="'Helvetica Neue', Helvetica, Arial-Unicode, Arial, Sans-serif">Created by Creative Stall</text><text x="0" y="69" fill="#000000" font-size="5px" font-weight="bold" font-family="'Helvetica Neue', Helvetica, Arial-Unicode, Arial, Sans-serif">from the Noun Project</text></svg>